<?xml version="1.0" encoding="UTF-8" standalone="no"?>

<svg
    xmlns="http://www.w3.org/2000/svg" version="1.1"
    width="64mm"
    height="64mm"
    viewBox="0 0 64 64">
    <defs>
        <linearGradient id="Gradient1"
            x1="0%" y1="0%" x2="20%" y2="100%">
            <stop offset="10%" stop-color="#ffffff" />
            <stop offset="90%" stop-color="#d3d7cf" />
        </linearGradient>
        <linearGradient id="Gradient2"
            x1="0%" y1="0%" x2="20%" y2="100%">
            <stop offset="10%" stop-color="#8ae234" stop-opacity="0.5" />
            <stop offset="90%" stop-color="#4e9a06" stop-opacity="0.5" />
        </linearGradient>
    </defs>
    <g id="Background"
        style="display:inline;fill:none;stroke:#2e3436;stroke-width:2;
        stroke-linecap:round;stroke-linejoin:round;stroke-miterlimit:4;
        stroke-dasharray:none;stroke-dashoffset:0;stroke-opacity:1">
        <rect x="3" y="9" width="58" height="46"
            style="fill:#d3d7cf;fill-opacity:1;stroke-linejoin:round" />
        <rect x="5" y="11" width="54" height="42"
            style="fill:url(#Gradient1);fill-opacity:1;
            stroke:#ffffff;stroke-linejoin:miter;" />
        <path d="
            m 7,15.375 v -2.375 h 3
            m 6.25,0 h 6.25 m 6.25,0 h 6.25 m 6.25,0 h 6.25
            m 6.25,0 h 3 v 2.375
            m 0,4.75 v 4.75 m 0,4.75 v 4.75 m 0,4.75 v 4.75
            m 0,4.75 v 2.375 h -3
            m -6.25,0 h -6.25 m -6.25,0 h -6.25 m -6.25,0 h -6.25
            m -6.25,0 h -3 v -2.375
            m 0,-4.75 v -4.75 m 0,-4.75 v -4.75 m 0,-4.75 v -4.75" />
        <path d="
            m 33,42 v -3 h 3
            m 6,0 h 6
            m 6,0 h 3
            m -24,8 v 3" />
        <path d="m 37,43 h 15.398794 v 0" />
        <path d="m 37,47 h 15.642526 v 0" />
    </g>
    <g id="PlayButton"
        style="display:inline;stroke-width:2;stroke-linecap:butt;
        stroke-opacity:1;fill-opacity:0.6">
        <path
            style="stroke:#172a04;stroke-linejoin:round;fill:#8ae234"
            d="m 30,52 v -30 l 30,15 z" />
        <path
            style="stroke:#8ae234;stroke-linejoin:miter;fill:url(#Gradient2)"
            d="m 32,48.75 v -23.5 l 23.575712,11.75 z" />
    </g>
    <g id="Symbol"
        style="stroke:#172a04;stroke-width:2;stroke-linecap:round;
        troke-linejoin:round;stroke-opacity:1;fill:none">
        <path d="m 37,41 l -4,-4 l 4,-4" />
        <path d="m 46,41 l 4,-4 l -4,-4" />
        <path d="m 40,41 l 3,-8" />
    </g>
    <g id="Text"
        font-family = "DIN Alternate"
        style="font-size:28.0;text-anchor:middle;fill:#d00">
        <text x="28" y="36">Wiki</text>
    </g>
</svg>
